<svg xmlns="http://www.w3.org/2000/svg" width="2457.438" height="1040.943" viewBox="0 0 2457.438 1040.943" fill="none">
  <path d="M 2457.438 520.471 L 2457.079 520.471 C 2457.079 592.211 2422.757 660.586 2360.625 722.809 C 2298.492 785.035 2208.565 841.088 2097.415 888.171 C 1875.114 982.334 1567.984 1040.585 1228.719 1040.585 L 1228.719 1040.943 L 1228.719 1041.301 C 1568.056 1041.301 1875.286 983.04 2097.694 888.83 C 2208.897 841.726 2298.913 785.627 2361.132 723.315 C 2423.353 661.003 2457.796 592.456 2457.796 520.471 L 2457.438 520.471 Z M 1228.719 1040.943 L 1228.719 1040.585 C 889.454 1040.585 582.323 982.334 360.023 888.171 C 248.872 841.088 158.946 785.035 96.812 722.809 C 34.68 660.586 0.358 592.211 0.358 520.471 L 0 520.471 L -0.358 520.471 C -0.358 592.456 34.084 661.003 96.305 723.315 C 158.525 785.627 248.54 841.726 359.744 888.83 C 582.152 983.04 889.381 1041.301 1228.719 1041.301 L 1228.719 1040.943 Z M 0 520.471 L 0.358 520.471 C 0.358 448.732 34.68 380.357 96.812 318.134 C 158.946 255.908 248.872 199.855 360.023 152.772 C 582.323 58.608 889.454 0.358 1228.719 0.358 L 1228.719 0 L 1228.719 -0.358 C 889.381 -0.358 582.152 57.903 359.744 152.113 C 248.54 199.217 158.525 255.316 96.305 317.627 C 34.084 379.94 -0.358 448.487 -0.358 520.471 L 0 520.471 Z M 1228.719 0 L 1228.719 0.358 C 1567.984 0.358 1875.114 58.608 2097.415 152.772 C 2208.565 199.855 2298.492 255.908 2360.625 318.134 C 2422.757 380.357 2457.079 448.732 2457.079 520.471 L 2457.438 520.471 L 2457.796 520.471 C 2457.796 448.487 2423.353 379.94 2361.132 317.627 C 2298.913 255.316 2208.897 199.217 2097.694 152.113 C 1875.286 57.903 1568.056 -0.358 1228.719 -0.358 L 1228.719 0 Z" fill="#ff1b8e" fill-rule="nonzero"></path>
</svg>
