<svg xmlns="http://www.w3.org/2000/svg" width="2757.125" height="1150.516" viewBox="0 0 2757.125 1150.516" fill="none">
  <path d="M 2757.125 575.258 L 2756.767 575.258 C 2756.767 654.56 2718.254 730.14 2648.539 798.919 C 2578.823 867.699 2477.925 929.656 2353.216 981.696 C 2103.798 1085.775 1759.207 1150.158 1378.563 1150.158 L 1378.563 1150.516 L 1378.563 1150.874 C 1759.278 1150.874 2103.967 1086.481 2353.491 982.357 C 2478.253 930.296 2579.24 868.295 2649.042 799.429 C 2718.846 730.562 2757.483 654.809 2757.483 575.258 L 2757.125 575.258 Z M 1378.563 1150.516 L 1378.563 1150.158 C 997.919 1150.158 653.327 1085.775 403.91 981.696 C 279.2 929.656 178.302 867.699 108.586 798.919 C 38.871 730.14 0.358 654.56 0.358 575.258 L 0 575.258 L -0.358 575.258 C -0.358 654.809 38.279 730.562 108.083 799.429 C 177.885 868.295 278.872 930.296 403.634 982.357 C 653.158 1086.481 997.847 1150.874 1378.563 1150.874 L 1378.563 1150.516 Z M 0 575.258 L 0.358 575.258 C 0.358 495.956 38.871 420.375 108.586 351.596 C 178.302 282.816 279.2 220.859 403.91 168.82 C 653.327 64.741 997.919 0.358 1378.563 0.358 L 1378.563 0 L 1378.563 -0.358 C 997.847 -0.358 653.158 64.035 403.634 168.159 C 278.872 220.22 177.885 282.221 108.083 351.087 C 38.279 419.953 -0.358 495.707 -0.358 575.258 L 0 575.258 Z M 1378.563 0 L 1378.563 0.358 C 1759.207 0.358 2103.798 64.741 2353.216 168.82 C 2477.925 220.859 2578.823 282.816 2648.539 351.596 C 2718.254 420.375 2756.767 495.956 2756.767 575.258 L 2757.125 575.258 L 2757.483 575.258 C 2757.483 495.707 2718.846 419.953 2649.042 351.087 C 2579.24 282.221 2478.253 220.22 2353.491 168.159 C 2103.967 64.035 1759.278 -0.358 1378.563 -0.358 L 1378.563 0 Z" fill="#ff1b8e" fill-rule="nonzero"></path>
</svg>
